<svg width="50" height="50" viewBox="0 0 50 50" fill="none" xmlns="http://www.w3.org/2000/svg">
<g clip-path="url(#clip0_327_49)">
<path d="M1.66572 40.0008C1.67299 38.3931 2.14255 36.8213 3.01839 35.473C3.89424 34.1247 5.13941 33.0567 6.60541 32.3965C7.27747 32.7973 8.01531 33.0755 8.78462 33.2184L6.73354 38.0102C6.64741 38.2086 6.64181 38.4327 6.71791 38.6352L9.21797 45.302C9.27716 45.4615 9.38375 45.599 9.52341 45.6962C9.66307 45.7933 9.82912 45.8454 9.99923 45.8454C10.1693 45.8454 10.3354 45.7933 10.4751 45.6962C10.6147 45.599 10.7213 45.4615 10.7805 45.302L13.2806 38.6352C13.3567 38.4327 13.351 38.2086 13.2649 38.0102L11.2138 33.2184C11.9816 33.0758 12.7178 32.7975 13.3878 32.3965C14.321 32.8074 15.1709 33.3861 15.8952 34.1038C16.2185 34.4321 16.513 34.7876 16.7754 35.1664C15.623 36.8322 15.0037 38.8086 14.9993 40.8342V50.001H16.666V40.8342C16.6733 39.2263 17.1429 37.6544 18.019 36.306C18.895 34.9577 20.1405 33.8898 21.6068 33.2299C22.2937 33.6403 23.0493 33.9226 23.837 34.0632L21.7193 39.7123C21.6522 39.891 21.6485 40.0874 21.7089 40.2686L24.2089 47.7687C24.2642 47.9347 24.3703 48.079 24.5122 48.1814C24.6541 48.2837 24.8246 48.3387 24.9995 48.3387C25.1745 48.3387 25.345 48.2837 25.4869 48.1814C25.6288 48.079 25.7349 47.9347 25.7902 47.7687L28.2902 40.2686C28.3506 40.0874 28.3469 39.891 28.2798 39.7123L26.1621 34.0632C26.9479 33.9218 27.7017 33.6395 28.3871 33.2299C29.8631 33.8772 31.1177 34.9419 31.9964 36.2929C32.8752 37.644 33.3398 39.2225 33.3331 40.8342V50.001H34.9998V40.8342C35.004 38.8046 34.386 36.8224 33.2289 35.1549C34.0919 33.9527 35.2583 33.0009 36.6092 32.3965C37.2804 32.7971 38.0176 33.075 38.7863 33.2174L36.7352 38.0091C36.6494 38.2077 36.6442 38.4318 36.7206 38.6341L39.2207 45.301C39.2799 45.4604 39.3865 45.598 39.5261 45.6951C39.6658 45.7922 39.8318 45.8443 40.0019 45.8443C40.1721 45.8443 40.3381 45.7922 40.4778 45.6951C40.6174 45.598 40.724 45.4604 40.7832 45.301L43.2833 38.6341C43.3594 38.4317 43.3538 38.2075 43.2676 38.0091L41.2165 33.2174C41.9834 33.0745 42.7188 32.7966 43.3885 32.3965C44.8642 33.0441 46.1185 34.1089 46.997 35.4599C47.8755 36.8109 48.34 38.3893 48.3334 40.0008V50.001H50.0001V40.0008C50.0042 38.687 49.7477 37.3854 49.2452 36.1715C48.7428 34.9575 48.0044 33.8554 47.0729 32.9288C46.4062 32.267 45.6499 31.7021 44.826 31.2507C45.7264 30.3061 46.3298 29.118 46.5614 27.8337C46.7929 26.5495 46.6425 25.2255 46.1287 24.0259C45.6149 22.8263 44.7604 21.8039 43.671 21.0854C42.5816 20.3669 41.3054 19.9839 40.0004 19.9839C38.6954 19.9839 37.4191 20.3669 36.3297 21.0854C35.2404 21.8039 34.3858 22.8263 33.872 24.0259C33.3582 25.2255 33.2078 26.5495 33.4394 27.8337C33.6709 29.118 34.2743 30.3061 35.1748 31.2507C34.0015 31.9009 32.9696 32.7785 32.1393 33.832C32.1164 33.809 32.0955 33.782 32.0726 33.759C31.4059 33.0981 30.6495 32.5342 29.8257 32.084C30.7256 31.1393 31.3286 29.9512 31.5598 28.6671C31.791 27.3829 31.6403 26.0592 31.1264 24.8598C30.6125 23.6605 29.7579 22.6384 28.6687 21.9201C27.5794 21.2018 26.3033 20.8189 24.9985 20.8189C23.6937 20.8189 22.4176 21.2018 21.3283 21.9201C20.2391 22.6384 19.3845 23.6605 18.8706 24.8598C18.3567 26.0592 18.206 27.3829 18.4372 28.6671C18.6684 29.9512 19.2714 31.1393 20.1713 32.084C19.326 32.5539 18.5539 33.1449 17.8796 33.8382C17.0525 32.7731 16.0127 31.8919 14.8264 31.2507C15.7264 30.3059 16.3293 29.1178 16.5605 27.8337C16.7917 26.5496 16.6411 25.2258 16.1271 24.0265C15.6132 22.8272 14.7587 21.805 13.6694 21.0867C12.5801 20.3684 11.304 19.9855 9.99923 19.9855C8.69444 19.9855 7.41834 20.3684 6.32906 21.0867C5.23979 21.805 4.38524 22.8272 3.87133 24.0265C3.35741 25.2258 3.20672 26.5496 3.43793 27.8337C3.66914 29.1178 4.27209 30.3059 5.17205 31.2507C3.61098 32.119 2.3091 33.3872 1.40002 34.9249C0.490932 36.4626 0.00739249 38.2145 -0.000976562 40.0008V50.001H1.66572V40.0008ZM41.602 38.355L39.9988 42.6259L38.3967 38.355L39.9999 34.6174L41.602 38.355ZM34.9998 26.6672C34.9998 25.6783 35.293 24.7116 35.8424 23.8893C36.3918 23.0671 37.1728 22.4262 38.0864 22.0477C39.0001 21.6693 40.0054 21.5703 40.9753 21.7632C41.9453 21.9561 42.8362 22.4323 43.5355 23.1316C44.2347 23.8309 44.711 24.7218 44.9039 25.6918C45.0968 26.6617 44.9978 27.667 44.6194 28.5807C44.2409 29.4943 43.6 30.2752 42.7778 30.8247C41.9555 31.3741 40.9888 31.6673 39.9999 31.6673C38.6742 31.666 37.4032 31.1387 36.4658 30.2013C35.5284 29.2639 35.0011 27.9929 34.9998 26.6672ZM26.6162 40.0175L24.9995 44.8655L23.3839 40.0175L24.9995 35.708L26.6162 40.0175ZM19.9994 27.5006C19.9994 26.5117 20.2927 25.5449 20.8421 24.7227C21.3915 23.9004 22.1724 23.2595 23.0861 22.8811C23.9997 22.5026 25.0051 22.4036 25.975 22.5966C26.9449 22.7895 27.8359 23.2657 28.5352 23.965C29.2344 24.6642 29.7106 25.5552 29.9036 26.5251C30.0965 27.495 29.9975 28.5004 29.619 29.414C29.2406 30.3277 28.5997 31.1086 27.7775 31.658C26.9552 32.2074 25.9885 32.5007 24.9995 32.5007C23.6739 32.4993 22.4029 31.9721 21.4655 31.0347C20.5281 30.0973 20.0008 28.8263 19.9994 27.5006ZM11.6024 38.355L10.0003 42.6259L8.39711 38.355L9.99923 34.6174L11.6024 38.355ZM4.99913 26.6672C4.99913 25.6783 5.29238 24.7116 5.8418 23.8893C6.39121 23.0671 7.17213 22.4262 8.08578 22.0477C8.99942 21.6693 10.0048 21.5703 10.9747 21.7632C11.9446 21.9561 12.8356 22.4323 13.5348 23.1316C14.2341 23.8309 14.7103 24.7218 14.9033 25.6918C15.0962 26.6617 14.9972 27.667 14.6187 28.5807C14.2403 29.4943 13.5994 30.2752 12.7771 30.8247C11.9549 31.3741 10.9882 31.6673 9.99923 31.6673C8.67354 31.666 7.40255 31.1387 6.46515 30.2013C5.52774 29.2639 5.00051 27.9929 4.99913 26.6672Z" fill="#E70F47"/>
<path d="M2.53452 11.9065C2.57599 12.0451 2.65283 12.1705 2.75749 12.2704C2.86214 12.3704 2.99101 12.4413 3.13141 12.4763C5.34395 13.0276 7.64716 13.1114 9.8939 12.7221C12.1406 12.3329 14.2815 11.4793 16.1796 10.2158L17.1515 9.56789L21.7433 19.516L23.2568 18.8181L18.2567 7.99181L15.1962 0.520822C15.1493 0.40613 15.0773 0.303364 14.9855 0.220011C14.8938 0.136657 14.7846 0.0748159 14.666 0.0389901C14.5473 0.00316425 14.4222 -0.00574386 14.2996 0.0129161C14.1771 0.031576 14.0603 0.0773346 13.9577 0.146856L13.4285 0.509365C11.7655 1.64316 9.88805 2.4247 7.91174 2.80592C5.93543 3.18713 3.90202 3.15996 1.93659 2.72608L1.0147 2.51774C0.872833 2.48602 0.725139 2.49196 0.58628 2.53498C0.447421 2.57799 0.322229 2.65658 0.223136 2.76294C0.124042 2.8693 0.0544939 2.99973 0.0213975 3.14128C-0.0116989 3.28283 -0.00719239 3.43057 0.0344695 3.56984L2.53452 11.9065ZM14.0441 2.10002L16.4702 8.02098L15.2556 8.83141C13.6164 9.92224 11.7751 10.6733 9.84063 11.0403C7.90614 11.4073 5.9177 11.3827 3.99289 10.9679L2.03764 4.44799C6.19283 5.23949 10.4932 4.39851 14.0441 2.10002Z" fill="#E70F47"/>
<path d="M32.8487 9.56791L33.8206 10.2158C35.7187 11.4793 37.8596 12.3329 40.1063 12.7222C42.353 13.1114 44.6562 13.0276 46.8688 12.4763C47.009 12.4412 47.1376 12.3701 47.2421 12.2702C47.3466 12.1703 47.4232 12.045 47.4646 11.9065L49.9647 3.57299C50.0062 3.43392 50.0107 3.28642 49.9776 3.1451C49.9446 3.00377 49.8753 2.87351 49.7765 2.76722C49.6776 2.66093 49.5528 2.58229 49.4142 2.53909C49.2757 2.49588 49.1283 2.4896 48.9865 2.52088L48.0636 2.72922C46.0988 3.1627 44.0661 3.18967 42.0906 2.80845C40.115 2.42724 38.2383 1.64591 36.5759 0.512509L36.0415 0.145832C35.9388 0.0765338 35.822 0.0309882 35.6995 0.0125057C35.5771 -0.00597673 35.452 0.0030687 35.3335 0.0389866C35.215 0.0749046 35.1059 0.136792 35.0143 0.220144C34.9227 0.303496 34.8509 0.406219 34.8039 0.520841L31.7403 7.99391L26.7402 18.8202L28.2538 19.5192L32.8487 9.56791ZM35.956 2.10004C39.5064 4.39887 43.8066 5.23989 47.9615 4.44801L46.0063 10.9658C44.0815 11.3812 42.0929 11.4061 40.1583 11.0391C38.2238 10.6721 36.3825 9.92071 34.7435 8.82935L33.5289 8.021L35.956 2.10004Z" fill="#E70F47"/>
<path d="M13.7056 6.58032L12.9598 5.08862C10.8828 6.12435 8.59403 6.66454 6.27315 6.66678H5.83252V8.33348H6.27211C8.85177 8.33015 11.3956 7.72975 13.7046 6.57928L13.7056 6.58032Z" fill="#E70F47"/>
<path d="M39.1665 9.1669C39.2561 9.16658 39.3451 9.15181 39.43 9.12314L44.4301 7.45644L43.902 5.87516L39.6936 7.27936L39.1227 5.56995L37.5425 6.09704L38.3758 8.59709C38.4311 8.76303 38.5373 8.90735 38.6792 9.00962C38.8211 9.11189 38.9916 9.16691 39.1665 9.1669Z" fill="#E70F47"/>
</g>
<defs>
<clipPath id="clip0_327_49">
<rect width="50" height="50.001" fill="white"/>
</clipPath>
</defs>
</svg>
