<svg width="50" height="49" viewBox="0 0 50 49" fill="none" xmlns="http://www.w3.org/2000/svg">
<g clip-path="url(#clip0_321_21)">
<path d="M47.28 42.9438H46.2175V41.5788C46.2171 40.9537 46.0014 40.3479 45.6068 39.8632C45.2122 39.3785 44.6627 39.0447 44.0509 38.9177C43.2449 30.2977 43.1394 24.8337 43.5978 16.3843H46.4624C46.6416 16.3843 46.8134 16.313 46.9401 16.1863C47.0669 16.0595 47.1381 15.8875 47.1381 15.7083V13.6672C47.1374 12.9472 46.8512 12.2568 46.3422 11.7477C45.8332 11.2385 45.1431 10.9522 44.4233 10.9515H44.3178L25.5352 0.0911303C25.4326 0.0316707 25.316 0.000366211 25.1973 0.000366211C25.0787 0.000366211 24.9622 0.0316707 24.8595 0.0911303L6.06649 10.945H5.5756C4.85579 10.9457 4.16567 11.232 3.65668 11.7412C3.1477 12.2503 2.86147 12.9407 2.86078 13.6607V15.7017C2.86061 15.7905 2.87792 15.8783 2.91174 15.9603C2.94556 16.0424 2.99519 16.1169 3.05784 16.1797C3.12049 16.2425 3.19492 16.2923 3.27684 16.3263C3.35875 16.3603 3.44657 16.3778 3.53525 16.3778H6.66025C7.12249 24.8206 7.01312 30.2808 6.21104 38.8774C5.5449 38.9495 4.92883 39.2651 4.48095 39.7637C4.03306 40.2622 3.78485 40.9085 3.78394 41.5788V42.9438H2.72275C2.00282 42.9445 1.31254 43.2308 0.803355 43.7399C0.294165 44.249 0.00762585 44.9394 0.0065918 45.6595V47.7006C0.0065918 47.8799 0.0778092 48.0518 0.204543 48.1786C0.331276 48.3054 0.503137 48.3766 0.682365 48.3766H49.3243C49.5036 48.3766 49.6755 48.3054 49.8022 48.1786C49.9289 48.0518 50.0001 47.8799 50.0001 47.7006V45.6595C49.9998 45.3026 49.9291 44.9491 49.7923 44.6195C49.6554 44.2898 49.4549 43.9903 49.2023 43.7381C48.9497 43.486 48.65 43.286 48.3202 43.1497C47.9903 43.0134 47.6369 42.9435 47.28 42.9438ZM42.6941 38.8682H38.2866C39.0821 30.3029 39.1915 24.8154 38.7319 16.3843H42.2475C41.7892 24.8141 41.8972 30.3029 42.6928 38.8682H42.6941ZM33.81 38.8682C33.0079 30.2808 32.8985 24.8219 33.3608 16.3843H37.3842C37.8451 24.8232 37.737 30.2808 36.935 38.8682H33.81ZM23.5678 38.8682C22.767 30.2795 22.6564 24.8206 23.1199 16.3843H27.1368C27.599 24.8232 27.4897 30.2808 26.6889 38.8682H23.5678ZM13.3269 38.8682C12.5249 30.2808 12.4155 24.8219 12.8777 16.3843H16.8959C17.3581 24.8219 17.2488 30.2808 16.4467 38.8682H13.3269ZM18.2436 16.3778H21.7592C21.2996 24.8063 21.4089 30.2951 22.2045 38.8617H17.7969C18.5925 30.2964 18.7019 24.8076 18.2423 16.3778H18.2436ZM28.4858 16.3778H32.0014C31.5418 24.8089 31.6498 30.2964 32.4467 38.8617H28.0391C28.8347 30.2964 28.9428 24.8089 28.4844 16.3778H28.4858ZM25.1876 1.45617L41.616 10.945H8.76444L25.1876 1.45617ZM4.2019 13.6607C4.20224 13.4812 4.23796 13.3035 4.307 13.1377C4.37603 12.972 4.47704 12.8215 4.60426 12.6949C4.73147 12.5682 4.88242 12.4679 5.04841 12.3996C5.21441 12.3313 5.39221 12.2965 5.57169 12.297H44.4285C44.7901 12.2973 45.1367 12.4411 45.3925 12.6967C45.6483 12.9523 45.7924 13.299 45.7931 13.6607V15.0323H4.20711L4.2019 13.6607ZM11.5196 16.3778C11.06 24.8089 11.1681 30.2964 11.9636 38.8617H7.56649C8.36207 30.2964 8.47016 24.8076 8.01053 16.3778H11.5196ZM5.12379 41.5788C5.12413 41.2171 5.26782 40.8703 5.52338 40.6144C5.77893 40.3585 6.12548 40.2144 6.48706 40.2137H43.504C43.8657 40.2141 44.2124 40.358 44.468 40.614C44.7237 40.87 44.8673 41.217 44.8673 41.5788V42.9438H5.129L5.12379 41.5788ZM48.6433 47.0246H1.35165V45.6595C1.352 45.2976 1.49589 44.9506 1.75172 44.6947C2.00755 44.4388 2.35443 44.2948 2.71623 44.2945H47.28C47.6416 44.2952 47.9881 44.4393 48.2437 44.6952C48.4992 44.951 48.643 45.2978 48.6433 45.6595V47.0246Z" fill="#E70F47"/>
</g>
<defs>
<clipPath id="clip0_321_21">
<rect width="50" height="48.3766" fill="white"/>
</clipPath>
</defs>
</svg>
