<svg width="50" height="50" viewBox="0 0 50 50" fill="none" xmlns="http://www.w3.org/2000/svg">
<g clip-path="url(#clip0_321_31)">
<path d="M23.5424 11.5883L18.3995 11.7445L15.3492 7.58021C15.2314 7.43429 15.0763 7.32292 14.9003 7.25786C14.7244 7.19281 14.5342 7.17649 14.3497 7.21063C14.1652 7.24464 13.9933 7.3279 13.8522 7.4516C13.7111 7.5753 13.606 7.73485 13.5482 7.91335L12.0698 12.8584L7.18718 14.4721C7.00216 14.5324 6.83778 14.6434 6.71265 14.7925C6.58752 14.9415 6.50665 15.1227 6.47926 15.3154C6.44535 15.5136 6.46959 15.7174 6.54903 15.9021C6.62847 16.0869 6.75971 16.2447 6.92691 16.3564L11.1797 19.261V24.4039C11.1811 24.5971 11.2363 24.7861 11.339 24.9497C11.4417 25.1134 11.588 25.2452 11.7614 25.3305C11.9037 25.4034 12.0609 25.4426 12.2208 25.445C12.4496 25.4394 12.671 25.363 12.8545 25.2264L16.9264 22.1031L21.8806 23.6023C22.0623 23.6562 22.2554 23.6595 22.4388 23.6118C22.6223 23.5641 22.7892 23.4672 22.9217 23.3316C23.0504 23.195 23.1397 23.0261 23.1802 22.8428C23.2208 22.6595 23.211 22.4687 23.152 22.2905L21.4121 17.4391L24.4208 13.2749C24.5235 13.1231 24.5844 12.9469 24.5971 12.7641C24.6099 12.5813 24.5743 12.3984 24.4937 12.2338C24.4171 12.0443 24.2864 11.8816 24.1179 11.7659C23.9494 11.6502 23.7506 11.5866 23.5463 11.5831L23.5424 11.5883ZM19.3781 16.6375C19.2806 16.7748 19.2179 16.9336 19.1952 17.1004C19.1725 17.2672 19.1906 17.437 19.248 17.5953L20.4543 20.9788L17.05 19.8857C16.8889 19.8334 16.7174 19.8213 16.5505 19.8503C16.3836 19.8793 16.2263 19.9486 16.0923 20.0522L13.2618 22.2385V18.6572C13.2603 18.4883 13.2176 18.3224 13.1376 18.1736C13.0575 18.0249 12.9426 17.8979 12.8025 17.8035L9.84584 15.7838L13.2502 14.6595C13.4092 14.6056 13.5529 14.514 13.669 14.3926C13.785 14.2711 13.8698 14.1234 13.9164 13.962L14.9575 10.5264L17.0396 13.4102C17.1396 13.5472 17.2716 13.6577 17.424 13.7321C17.5764 13.8065 17.7446 13.8425 17.9141 13.837L21.4954 13.7329L19.3781 16.6375Z" fill="#E70F47"/>
<path d="M49.1228 7.74682L27.8017 4.00938L27.25 0.886174C27.227 0.750804 27.1774 0.621322 27.1041 0.505185C27.0309 0.389048 26.9354 0.288549 26.8231 0.209477C26.7126 0.126298 26.5866 0.0659664 26.4526 0.0320044C26.3185 -0.00195768 26.1791 -0.00887201 26.0423 0.011671L0.879648 4.45705C0.743198 4.4786 0.61242 4.5271 0.494902 4.59971C0.377383 4.67232 0.27544 4.7676 0.195111 4.87998C0.115093 4.99182 0.0580571 5.1184 0.0272334 5.25241C-0.00359029 5.38643 -0.00757609 5.52522 0.0155417 5.66078L4.47135 30.8234C4.5157 31.066 4.64467 31.2849 4.83532 31.4412C5.02597 31.5976 5.26591 31.6811 5.51242 31.6771H5.69066L15.711 29.9177L18.8342 47.2932C18.9439 47.9726 19.3182 48.5808 19.8752 48.9849C20.3135 49.2864 20.8321 49.4495 21.364 49.4534C21.5167 49.469 21.6706 49.469 21.8234 49.4534C22.4986 49.3269 23.0965 48.9384 23.4865 48.3729C23.8766 47.8073 24.0272 47.1105 23.9055 46.4343L21.1454 30.8911L29.1616 32.307L26.6526 46.6113C26.5338 47.2871 26.6855 47.9826 27.0751 48.5475C27.4647 49.1124 28.0608 49.5013 28.7348 49.6304C28.8873 49.6408 29.0403 49.6408 29.1928 49.6304C29.8046 49.6277 30.396 49.4106 30.8642 49.0168C31.3324 48.6231 31.6477 48.0776 31.7552 47.4754L34.2733 33.1711L44.2936 34.9409H44.4705C44.6828 34.9404 44.8899 34.875 45.0639 34.7535C45.2884 34.5962 45.4418 34.3568 45.4908 34.0872L49.9778 8.95577C49.9998 8.8197 49.9946 8.68061 49.9624 8.54658C49.9303 8.41254 49.8718 8.28623 49.7904 8.17497C49.7114 8.06271 49.6109 7.9672 49.4947 7.89395C49.3786 7.82069 49.2491 7.77113 49.1137 7.74813L49.1228 7.74682ZM21.878 46.7453C21.89 46.813 21.8883 46.8824 21.8733 46.9495C21.8583 47.0166 21.8301 47.0801 21.7905 47.1362C21.7508 47.1923 21.7004 47.2401 21.6421 47.2766C21.5839 47.3132 21.519 47.3378 21.4512 47.3491C21.3839 47.3616 21.3147 47.3607 21.2477 47.3464C21.1807 47.3321 21.1172 47.3047 21.0608 47.2659C20.9503 47.1817 20.8755 47.0591 20.8512 46.9223L17.7073 29.5468L18.7483 29.3699L21.878 46.7453ZM6.33485 29.4375L2.26429 6.32576L25.376 2.23436L29.4466 25.3669L6.33485 29.4375ZM29.7381 47.1357C29.7267 47.2034 29.7022 47.2682 29.6657 47.3263C29.6292 47.3844 29.5816 47.4348 29.5256 47.4745C29.4696 47.5141 29.4064 47.5423 29.3394 47.5575C29.2725 47.5726 29.2032 47.5743 29.1356 47.5626C28.9998 47.5371 28.8793 47.4599 28.7994 47.3473C28.7195 47.2346 28.6865 47.0953 28.7074 46.9587L31.2476 32.6648L32.2887 32.8418L29.7381 47.1357ZM43.6624 32.7481L21.6438 28.8545L27.3293 27.8135L27.2655 28.1674L29.3477 28.5318L29.5455 27.4283L30.8677 27.1992C31.0034 27.1767 31.1333 27.1275 31.2499 27.0545C31.3665 26.9814 31.4674 26.886 31.5469 26.7737C31.6261 26.6615 31.6822 26.5347 31.7121 26.4007C31.7421 26.2667 31.7452 26.1281 31.7214 25.9929L30.7636 20.5481L32.7832 9.09632L30.7011 8.73194L29.66 14.588L28.1817 6.17612L47.733 9.61164L43.6624 32.7481Z" fill="#E70F47"/>
<path d="M31.3726 28.9313L34.8146 9.44897L36.8642 9.81075L33.4222 29.2957L31.3726 28.9313Z" fill="#E70F47"/>
<path d="M35.4771 29.6614L38.9191 10.1777L40.97 10.5408L37.528 30.0231L35.4771 29.6614Z" fill="#E70F47"/>
<path d="M39.5737 30.3888L43.0158 10.9052L45.0667 11.2682L41.6312 30.7519L39.5737 30.3888Z" fill="#E70F47"/>
</g>
<defs>
<clipPath id="clip0_321_31">
<rect width="50" height="49.6369" fill="white"/>
</clipPath>
</defs>
</svg>
