<svg width="21" height="21" viewBox="0 0 21 21" fill="none" xmlns="http://www.w3.org/2000/svg">
<path d="M18.6049 0.399902H1.66974C0.858406 0.399902 0.200195 1.04211 0.200195 1.83517V18.9669C0.200195 19.76 0.858406 20.3999 1.66974 20.3999H18.6049C19.4163 20.3999 20.0745 19.76 20.0745 18.9669V1.83288C20.0722 1.04211 19.414 0.399902 18.6049 0.399902ZM6.22465 17.1386H3.22385V8.11102H6.22465V17.1386ZM4.72539 6.87916H4.70482C3.69694 6.87916 3.04787 6.18667 3.04787 5.3182C3.04787 4.43144 3.71979 3.75723 4.74368 3.75723C5.77213 3.75723 6.40292 4.43144 6.4212 5.3182C6.4212 6.18667 5.77213 6.87916 4.72539 6.87916ZM17.0486 17.1386H14.0455V12.3094C14.0455 11.0958 13.6135 10.2685 12.5279 10.2685C11.696 10.2685 11.2024 10.8261 10.9852 11.3655C10.9075 11.5598 10.8893 11.8295 10.8893 12.0969V17.1431H7.88617C7.88617 17.1431 7.92503 8.96121 7.88617 8.11331H10.8893V9.39087C11.2869 8.77609 12.0023 7.90076 13.593 7.90076C15.5676 7.90076 17.0486 9.19204 17.0486 11.9666V17.1386Z" fill="#0A66C2"/>
</svg>
