<svg width="22" height="24" viewBox="0 0 22 24" fill="none" xmlns="http://www.w3.org/2000/svg">
<g clip-path="url(#clip0_573_130)">
<path d="M2.75017 15.4838H1.96428C0.879626 15.4838 0.000488281 14.6176 0.000488281 13.5482C0.000488281 12.907 0.528224 12.387 1.17901 12.387H2.75017V15.4838Z" fill="#BD4150"/>
<path d="M17.6785 0H3.14296L2.73828 0.774375V23.625H21.2141L22 23.2256V4.25812L17.6785 0Z" fill="#ECEAEC"/>
<path d="M3.14283 22.0644V0C2.70897 0 2.35693 0.346875 2.35693 0.774375V23.2256C2.35693 23.6531 2.70897 24 3.14283 24H21.214C21.6478 24 21.9999 23.6531 21.9999 23.2256H4.32136C3.67057 23.2256 3.14283 22.7056 3.14283 22.0644Z" fill="#DAD8DB"/>
<path d="M22.0002 4.19187C22.0002 3.98625 21.9171 3.78938 21.7699 3.64438L18.3016 0.226875C18.1544 0.081875 17.9546 0 17.7459 0H17.6787V3.87125C17.6787 4.085 17.8544 4.25812 18.072 4.25812H22.0002V4.19187Z" fill="#DAD8DB"/>
<path d="M13.3572 14.7093H1.17868C1.04104 14.7093 0.908468 14.6862 0.785414 14.6431L0.406738 15.2649V20.1556C0.406738 20.7968 0.934474 21.3168 1.58526 21.3168H13.3572L14.1431 20.9024V15.4831C14.1431 15.0556 13.7917 14.7087 13.3572 14.7087V14.7093Z" fill="#E15F78"/>
<path d="M0.785896 14.6438C0.329201 14.4838 0 14.0538 0 13.5488V20.517C0 21.1582 0.527736 21.6782 1.17853 21.6782H13.3571C13.7909 21.6782 14.1429 21.3313 14.1429 20.9038H1.96379C1.313 20.9038 0.785261 20.3838 0.785261 19.7426V14.6445L0.785896 14.6438Z" fill="#DB4655"/>
<path d="M11.212 17.7774H10.4407V17.0437H11.3122C11.5298 17.0437 11.7048 16.8705 11.7048 16.6562C11.7048 16.4418 11.5291 16.2693 11.3122 16.2693H10.048C9.83049 16.2693 9.65479 16.4424 9.65479 16.6562V19.7305C9.65479 19.9443 9.83049 20.1174 10.048 20.1174C10.2656 20.1174 10.4407 19.9443 10.4407 19.7305V18.5512H11.212C11.4289 18.5512 11.6046 18.378 11.6046 18.1643C11.6046 17.9505 11.4289 17.7768 11.212 17.7768V17.7774Z" fill="white"/>
<path d="M4.0061 16.2581H3.1314C3.02674 16.2581 2.92652 16.2993 2.85294 16.3718C2.77936 16.4443 2.73877 16.5424 2.73877 16.6456V19.7424C2.73877 19.9562 2.91447 20.1299 3.1314 20.1299C3.34833 20.1299 3.52466 19.9568 3.52466 19.7424V18.7824C3.701 18.7812 3.89446 18.7806 4.00673 18.7806C4.72159 18.7806 5.30387 18.2149 5.30387 17.5199C5.30387 16.8243 4.72222 16.2587 4.00673 16.2587L4.0061 16.2581ZM4.0061 18.0056C3.8951 18.0056 3.7029 18.0062 3.52784 18.0074C3.5272 17.8287 3.5253 17.0318 3.5253 17.0318H4.00673C4.28392 17.0318 4.51798 17.2549 4.51798 17.5187C4.51798 17.7824 4.28392 18.0056 4.0061 18.0056Z" fill="white"/>
<path d="M7.30098 16.3037H6.4377C6.33367 16.3037 6.23345 16.345 6.15924 16.4175C6.08566 16.49 6.04443 16.5887 6.04443 16.6918L6.04697 18.1906C6.04697 18.6087 6.05078 19.6981 6.05078 19.6981C6.05078 19.8006 6.09327 19.8993 6.16749 19.9718C6.24043 20.0437 6.34065 20.0843 6.44404 20.0843H6.44531C6.44531 20.0843 7.08595 20.0818 7.33333 20.0775C8.2556 20.0612 8.92605 19.2693 8.92605 18.1943C8.92605 17.0637 8.27272 16.3043 7.30098 16.3043V16.3037ZM7.31937 19.3025C7.2071 19.3043 7.01237 19.3062 6.8354 19.3068C6.83413 18.9525 6.83287 18.4456 6.83287 18.19L6.8316 17.0775H7.30161C8.10019 17.0775 8.14079 18.0068 8.14079 18.1931C8.14079 18.7381 7.88707 19.2925 7.32001 19.3018L7.31937 19.3025Z" fill="white"/>
<path d="M8.23777 13.0949C7.93458 13.0949 7.66056 12.9393 7.46837 12.6462C7.18167 12.2112 7.25715 11.7187 7.67452 11.2943C8.09506 10.8662 8.9558 10.4637 9.99097 10.1349C10.3138 9.53492 10.643 8.83304 10.95 8.05679C11.1314 7.59804 11.278 7.18429 11.3953 6.81429C10.8777 5.87929 10.5701 5.00929 10.6519 4.44367C10.735 3.86992 11.1695 3.54742 11.8158 3.58242C12.0074 3.59242 12.4654 3.69117 12.5757 4.38554C12.6601 4.91679 12.518 5.77492 12.2339 6.74992C12.7724 7.64554 13.5113 8.60429 14.2332 9.34054C15.3248 9.27492 16.2502 9.35304 16.7158 9.62992C17.0805 9.84617 17.2232 10.1999 17.0989 10.5743C16.8947 11.1868 16.4018 11.4674 15.7789 11.3243C15.2544 11.2037 14.6049 10.7524 13.9452 10.1262C12.8853 10.218 11.6376 10.4312 10.5428 10.748C9.88949 11.9037 9.18351 12.803 8.58981 13.0262C8.46993 13.0712 8.35195 13.0937 8.23777 13.0937V13.0949ZM8.12741 12.2255C8.19274 12.3249 8.22889 12.323 8.24602 12.3212C8.49593 12.2962 8.91267 11.8705 9.38839 11.1512C9.07378 11.2837 8.79215 11.428 8.55492 11.5824C7.95995 11.9705 8.08618 12.1624 8.12741 12.2249V12.2255ZM15.0482 10.0762C15.3838 10.3349 15.6959 10.5112 15.9565 10.5712C16.1602 10.618 16.2648 10.5943 16.3517 10.3337C16.2356 10.1605 15.7428 10.0774 15.0482 10.0755V10.0762ZM11.9281 7.68929C11.6725 8.40742 11.3592 9.15054 11.0173 9.84742C11.7537 9.66554 12.5294 9.52179 13.2709 9.43054C12.792 8.89554 12.3284 8.29429 11.9281 7.68929ZM11.7385 4.34117C11.4594 4.34117 11.4454 4.44429 11.4289 4.55304C11.3877 4.83867 11.4898 5.24554 11.6915 5.71492C11.8691 4.87929 11.833 4.43742 11.7467 4.34117H11.7385Z" fill="#E15F78"/>
</g>
<defs>
<clipPath id="clip0_573_130">
<rect width="22" height="24" fill="white"/>
</clipPath>
</defs>
</svg>
