<svg width="26" height="21" viewBox="0 0 26 21" fill="none" xmlns="http://www.w3.org/2000/svg">
<path d="M25.0159 2.76558C24.1102 3.16783 23.1369 3.43788 22.1158 3.56165C23.1594 2.93717 23.9583 1.94702 24.3352 0.768398C23.3591 1.34786 22.2761 1.76699 21.1285 1.99484C20.2086 1.01312 18.895 0.399902 17.4435 0.399902C14.6531 0.399902 12.3915 2.65869 12.3915 5.44913C12.3915 5.84575 12.4365 6.23113 12.5209 6.59962C8.32395 6.38865 4.60243 4.38021 2.11298 1.32255C1.67979 2.06798 1.42944 2.93717 1.42944 3.86263C1.42944 5.61509 2.32114 7.1594 3.67416 8.06516C2.84716 8.03985 2.06798 7.812 1.38724 7.43225V7.49695C1.38724 9.94421 3.12845 11.9836 5.43788 12.4477C5.01594 12.5631 4.56868 12.6249 4.10736 12.6249C3.78106 12.6249 3.46601 12.594 3.1594 12.5349C3.80075 14.5405 5.66573 16.0005 7.87388 16.0427C6.14674 17.3957 3.97234 18.203 1.60384 18.203C1.19596 18.203 0.796527 18.1805 0.399902 18.1327C2.63619 19.5645 5.28879 20.3999 8.14111 20.3999C17.4294 20.3999 22.5096 12.7065 22.5096 6.03422C22.5096 5.81481 22.504 5.59821 22.4955 5.38162C23.4829 4.66713 24.3408 3.77824 25.0159 2.76558Z" fill="#1D9BF0"/>
</svg>
